<?xml version="1.0" encoding="UTF-8"?>
<svg id="Layer_1" data-name="Layer 1" xmlns="http://www.w3.org/2000/svg" viewBox="0 0 428.35 428.35">
  <defs>
    <style>
      .cls-1 {
        fill: #5c6670;
      }

      .cls-2 {
        fill: #d2d8d8;
      }

      .cls-3 {
        fill: #dadbdc;
      }

      .cls-4 {
        fill: #2d3740;
      }

      .cls-5 {
        fill: #333e48;
      }

      .cls-6 {
        fill: #7d868c;
      }

      .cls-7 {
        fill: #aab2b2;
      }

      .cls-8 {
        fill: #eaeaea;
      }
    </style>
  </defs>
  <g>
    <g>
      <rect class="cls-1" x="126.21" y="350.46" width="21.81" height="40.33" transform="translate(-124.24 74.22) rotate(-21.1)"/>
      <rect class="cls-4" x="135.03" y="389.15" width="21.81" height="8.67" transform="translate(-131.88 78.92) rotate(-21.1)"/>
    </g>
    <path class="cls-7" d="M79.72,309.23c-6.25-16.2,1.81-34.4,18.02-40.65,16.2-6.25,34.4,1.81,40.65,18.01l13.4,34.74c6.25,16.2-1.81,34.4-18.01,40.65-16.2,6.25-34.4-1.81-40.65-18.01l-13.4-34.74Z"/>
  </g>
  <g>
    <g>
      <rect class="cls-6" x="47.97" y="350.74" width="21.81" height="40.33" transform="translate(133.72 2.89) rotate(20.52)"/>
      <rect class="cls-5" x="39.38" y="389.52" width="21.81" height="8.67" transform="translate(141.22 7.36) rotate(20.52)"/>
    </g>
    <path class="cls-2" d="M56.73,286.89c6.09-16.26,24.2-24.51,40.47-18.43,16.26,6.09,24.51,24.2,18.43,40.47l-13.05,34.87c-6.09,16.26-24.2,24.51-40.47,18.43-16.26-6.09-24.51-24.2-18.43-40.47l13.05-34.87Z"/>
  </g>
  <g>
    <g>
      <rect class="cls-1" x="245.95" y="350.36" width="21.81" height="40.33" transform="translate(152.21 -68.01) rotate(21.31)"/>
      <rect class="cls-4" x="237.05" y="389.01" width="21.81" height="8.67" transform="translate(159.89 -63.21) rotate(21.31)"/>
    </g>
    <path class="cls-7" d="M255.88,286.49c6.31-16.18,24.54-24.18,40.72-17.87,16.18,6.31,24.18,24.54,17.87,40.72l-13.53,34.69c-6.31,16.18-24.54,24.18-40.72,17.87-16.18-6.31-24.18-24.54-17.87-40.72l13.53-34.69Z"/>
  </g>
  <g>
    <g>
      <rect class="cls-6" x="321.4" y="349.54" width="21.81" height="40.33" transform="translate(-110.64 144.07) rotate(-21.06)"/>
      <rect class="cls-5" x="330.2" y="388.24" width="21.81" height="8.67" transform="translate(-118.26 148.76) rotate(-21.06)"/>
    </g>
    <path class="cls-2" d="M274.96,308.27c-6.24-16.21,1.84-34.4,18.05-40.64,16.21-6.24,34.4,1.84,40.64,18.05l13.38,34.75c6.24,16.21-1.84,34.4-18.05,40.64-16.21,6.24-34.4-1.84-40.64-18.05l-13.38-34.75Z"/>
  </g>
  <path class="cls-3" d="M363.01,219.97c0-8.08-3.43-15.36-8.9-20.47-.82-36.94-20.64-69.19-50.08-87.37.21-1.37.31-2.77.31-4.19,0-15.46-12.54-28-28-28-2.43,0-4.79.31-7.04.89-5.13-5.79-12.61-9.44-20.96-9.44-8.9,0-16.83,4.16-21.96,10.64-8.49-8.4-20.16-13.58-33.04-13.58-10.28,0-19.79,3.31-27.52,8.91-5.11-5.48-12.39-8.91-20.48-8.91-12.55,0-23.18,8.26-26.73,19.64-6.65-3.6-14.26-5.64-22.35-5.64-17.18,0-32.2,9.22-40.4,22.98-2.65-1.67-5.77-2.65-9.13-2.65-2.07,0-4.05.39-5.89,1.06-2.46-3.59-6.6-5.96-11.28-5.96-4.26,0-8.06,1.94-10.56,5-.6-.06-1.21-.1-1.83-.1-9.49,0-17.17,7.69-17.17,17.17s7.69,17.17,17.17,17.17c2.56,0,4.98-.58,7.16-1.59-1.96,3.77-3.09,8.03-3.15,12.56-10.39,8.62-17.01,21.63-17.01,36.18,0,12.43,4.83,23.72,12.71,32.12-2.39,5.63-3.71,11.82-3.71,18.33,0,24.06,18.09,43.89,41.41,46.66,18.53,16.15,42.75,25.94,69.26,25.94h.98c3.47,1.54,7.31,2.4,11.35,2.4s7.88-.86,11.35-2.4h8.96c9.01,8.41,21.1,13.56,34.4,13.56s25.39-5.15,34.4-13.56h23.41c16.45,0,32.01-3.77,45.89-10.48,3.3.73,6.72,1.13,10.24,1.13,25.96,0,47-21.04,47-47,0-2.77-.25-5.48-.71-8.11,7.2-5.07,11.9-13.43,11.9-22.9Z"/>
  <g>
    <path class="cls-1" d="M388.64,99.22c23.16,1.36,40.83,21.24,39.46,44.4-1.36,23.15-21.24,40.82-44.4,39.46l-49.65-2.92c-23.16-1.36-40.82-21.24-39.46-44.39,1.36-23.16,21.24-40.83,44.4-39.47,0,0,49.65,2.92,49.65,2.92Z"/>
    <circle class="cls-5" cx="367.5" cy="129.51" r="6.49"/>
    <path class="cls-8" d="M357.17,74.79c-5.52-.32-10.64,1.62-14.47,5.02-4.69-7.16-12.59-12.08-21.79-12.62-15.44-.91-28.69,10.87-29.6,26.31,0,.15,0,.31-.01.46-23.03,1.81-41.78,20.37-43.18,44.08-1.52,25.91,18.25,48.15,44.16,49.68,3.94.23,7.79-.03,11.5-.73,2.82,6.93,9.39,12,17.35,12.46,11.03.65,20.5-7.77,21.15-18.8.37-6.35-2.27-12.18-6.68-16.11,3.63-6.2,5.91-13.32,6.36-20.98.55-9.4-1.71-18.3-6.03-25.92,2.81-2.08,5.22-4.68,7.09-7.66,3.2,2.74,7.27,4.5,11.8,4.77,11.03.65,20.5-7.77,21.15-18.8s-7.77-20.5-18.8-21.15Z"/>
    <path class="cls-1" d="M318.32,131.07l3.15,20.22c.78,5.03-2.66,9.73-7.68,10.52-5.03.78-9.73-2.66-10.52-7.68-.21-1.33-.1-2.68.23-3.89l5.5-19.71c.71-2.54,3.34-4.03,5.88-3.32,1.86.52,3.15,2.07,3.43,3.86Z"/>
  </g>
</svg>