<?xml version="1.0" encoding="UTF-8"?>
<svg id="Layer_1" data-name="Layer 1" xmlns="http://www.w3.org/2000/svg" viewBox="0 0 566.93 566.93">
  <defs>
    <style>
      .cls-1 {
        fill: #5c6670;
      }

      .cls-2 {
        fill: #d2d8d8;
      }

      .cls-3 {
        fill: #dadbdc;
      }

      .cls-4 {
        fill: #2d3740;
      }

      .cls-5 {
        fill: #333e48;
      }

      .cls-6 {
        fill: #7d868c;
      }

      .cls-7 {
        fill: #aab2b2;
      }

      .cls-8 {
        fill: #eaeaea;
      }
    </style>
  </defs>
  <g>
    <g>
      <rect class="cls-1" x="154.93" y="487.93" width="21.81" height="40.33"/>
      <rect class="cls-4" x="154.93" y="528.26" width="21.81" height="8.67"/>
    </g>
    <path class="cls-7" d="M134.39,430.16c0-17.37,14.08-31.44,31.44-31.44s31.44,14.08,31.44,31.44v37.23c0,17.36-14.08,31.44-31.44,31.44s-31.44-14.08-31.44-31.44v-37.23Z"/>
  </g>
  <g>
    <g>
      <rect class="cls-1" x="310.49" y="487.93" width="21.81" height="40.33"/>
      <rect class="cls-4" x="310.49" y="528.26" width="21.81" height="8.67"/>
    </g>
    <path class="cls-7" d="M289.95,430.16c0-17.37,14.08-31.44,31.44-31.44s31.44,14.08,31.44,31.44v37.23c0,17.36-14.08,31.44-31.44,31.44s-31.44-14.08-31.44-31.44v-37.23Z"/>
  </g>
  <g>
    <g>
      <rect class="cls-6" x="115.37" y="487.93" width="21.81" height="40.33"/>
      <rect class="cls-5" x="115.37" y="528.26" width="21.81" height="8.67"/>
    </g>
    <path class="cls-2" d="M94.83,430.16c0-17.37,14.08-31.44,31.44-31.44s31.44,14.08,31.44,31.44v37.23c0,17.36-14.08,31.44-31.44,31.44s-31.44-14.08-31.44-31.44v-37.23Z"/>
  </g>
  <g>
    <g>
      <rect class="cls-6" x="270.93" y="487.93" width="21.81" height="40.33"/>
      <rect class="cls-5" x="270.93" y="528.26" width="21.81" height="8.67"/>
    </g>
    <path class="cls-2" d="M250.39,430.16c0-17.37,14.08-31.44,31.44-31.44s31.44,14.08,31.44,31.44v37.23c0,17.36-14.08,31.44-31.44,31.44s-31.44-14.08-31.44-31.44v-37.23Z"/>
  </g>
  <path class="cls-3" d="M393.01,387.01c0-8.08-3.43-15.36-8.9-20.47-.82-36.94-20.64-69.19-50.08-87.37.21-1.37.31-2.77.31-4.19,0-15.46-12.54-28-28-28-2.43,0-4.79.31-7.04.89-5.13-5.79-12.61-9.44-20.96-9.44-8.9,0-16.83,4.16-21.96,10.64-8.49-8.4-20.16-13.58-33.04-13.58-10.28,0-19.79,3.31-27.52,8.91-5.11-5.48-12.39-8.91-20.48-8.91-12.55,0-23.18,8.26-26.73,19.64-6.65-3.6-14.26-5.64-22.35-5.64-17.18,0-32.2,9.22-40.4,22.98-2.65-1.67-5.77-2.65-9.13-2.65-2.07,0-4.05.39-5.89,1.06-2.46-3.59-6.6-5.96-11.28-5.96-4.26,0-8.06,1.94-10.56,5-.6-.06-1.21-.1-1.83-.1-9.49,0-17.17,7.69-17.17,17.17s7.69,17.17,17.17,17.17c2.56,0,4.98-.58,7.16-1.59-1.96,3.77-3.09,8.03-3.15,12.56-10.39,8.62-17.01,21.63-17.01,36.18,0,12.43,4.83,23.72,12.71,32.12-2.39,5.63-3.71,11.82-3.71,18.33,0,24.06,18.09,43.89,41.41,46.66,18.53,16.15,42.75,25.94,69.26,25.94h.98c3.47,1.54,7.31,2.4,11.35,2.4s7.88-.86,11.35-2.4h8.96c9.01,8.41,21.1,13.56,34.4,13.56s25.39-5.15,34.4-13.56h23.41c16.45,0,32.01-3.77,45.89-10.48,3.3.73,6.72,1.13,10.24,1.13,25.96,0,47-21.04,47-47,0-2.77-.25-5.48-.71-8.11,7.2-5.07,11.9-13.43,11.9-22.9Z"/>
  <g>
    <path class="cls-1" d="M416.35,265.01c23.2,0,42,18.81,42,42s-18.8,42-42,42h-49.73c-23.2,0-42-18.8-42-42s18.8-42,42-42c0,0,49.73,0,49.73,0Z"/>
    <circle class="cls-5" cx="397.02" cy="296.49" r="6.49"/>
    <path class="cls-8" d="M383.49,242.47c-5.53,0-10.53,2.24-14.15,5.86-5.1-6.87-13.28-11.32-22.49-11.32-15.46,0-28,12.54-28,28,0,.15.01.31.01.46-22.89,3.16-40.51,22.79-40.51,46.54,0,25.96,21.04,47,47,47,3.95,0,7.77-.49,11.44-1.41,3.22,6.75,10.08,11.42,18.05,11.42,11.05,0,20.01-8.96,20.01-20.01,0-6.37-2.98-12.02-7.61-15.69,3.26-6.4,5.11-13.64,5.11-21.31,0-9.41-2.78-18.17-7.54-25.52,2.68-2.24,4.94-4.98,6.62-8.07,3.36,2.54,7.52,4.07,12.06,4.07,11.05,0,20.01-8.96,20.01-20.01s-8.96-20.01-20.01-20.01Z"/>
    <path class="cls-1" d="M348.01,300.93l4.33,20c1.08,4.97-2.08,9.87-7.05,10.95-4.97,1.08-9.87-2.08-10.95-7.05-.29-1.31-.26-2.67,0-3.9l4.33-20c.56-2.58,3.1-4.21,5.68-3.66,1.88.41,3.27,1.88,3.65,3.66Z"/>
  </g>
</svg>