<?xml version="1.0" encoding="UTF-8"?>
<svg id="Layer_1" data-name="Layer 1" xmlns="http://www.w3.org/2000/svg" viewBox="0 0 566.93 566.93">
  <defs>
    <style>
      .cls-1 {
        fill: #5c6670;
      }

      .cls-2 {
        fill: #d2d8d8;
      }

      .cls-3 {
        fill: #dadbdc;
      }

      .cls-4 {
        fill: #2d3740;
      }

      .cls-5 {
        fill: #333e48;
      }

      .cls-6 {
        fill: #7d868c;
      }

      .cls-7 {
        fill: #aab2b2;
      }

      .cls-8 {
        fill: #eaeaea;
      }
    </style>
  </defs>
  <g>
    <g>
      <rect class="cls-1" x="48.92" y="450.81" width="21.81" height="40.33" transform="translate(521.78 361.44) rotate(83.9)"/>
      <rect class="cls-4" x="24.56" y="469.25" width="21.81" height="8.67" transform="translate(502.6 387.98) rotate(83.9)"/>
    </g>
    <path class="cls-7" d="M133.98,431.43c17.27-1.85,32.76,10.66,34.6,27.92,1.85,17.27-10.66,32.76-27.92,34.6l-37.02,3.96c-17.27,1.85-32.76-10.66-34.6-27.92-1.85-17.27,10.65-32.76,27.92-34.61l37.02-3.96Z"/>
  </g>
  <g>
    <g>
      <rect class="cls-1" x="493.53" y="423.75" width="21.81" height="40.33" transform="translate(100.96 981.24) rotate(-94.45)"/>
      <rect class="cls-4" x="517.96" y="437.68" width="21.81" height="8.67" transform="translate(129.17 1003.55) rotate(-94.45)"/>
    </g>
    <path class="cls-7" d="M429.17,481.3c-17.31,1.35-32.44-11.6-33.78-28.91s11.6-32.44,28.91-33.78l37.12-2.89c17.31-1.35,32.44,11.6,33.78,28.91,1.35,17.31-11.6,32.44-28.91,33.79l-37.12,2.89Z"/>
  </g>
  <g>
    <g>
      <rect class="cls-6" x="57.08" y="486.39" width="21.81" height="40.33" transform="translate(570.22 411.77) rotate(86.96)"/>
      <rect class="cls-5" x="32.62" y="503.52" width="21.81" height="8.67" transform="translate(548.35 437.43) rotate(86.96)"/>
    </g>
    <path class="cls-2" d="M144.14,471.02c17.34-.92,32.14,12.39,33.07,29.73.92,17.34-12.39,32.15-29.73,33.07l-37.18,1.98c-17.34.92-32.14-12.39-33.07-29.73s12.39-32.15,29.73-33.07l37.18-1.98Z"/>
  </g>
  <g>
    <g>
      <rect class="cls-6" x="473.93" y="480.83" width="21.81" height="40.33" transform="translate(-65.5 929) rotate(-83.81)"/>
      <rect class="cls-5" x="498.29" y="499.3" width="21.81" height="8.67" transform="translate(-46.4 955.57) rotate(-83.81)"/>
    </g>
    <path class="cls-2" d="M403.97,523.85c-17.26-1.87-29.74-17.38-27.87-34.65,1.87-17.26,17.38-29.74,34.65-27.87l37.02,4.01c17.26,1.87,29.74,17.38,27.87,34.65-1.87,17.26-17.38,29.74-34.65,27.87l-37.02-4.01Z"/>
  </g>
  <path class="cls-3" d="M432.47,429.14c0-8.08-3.43-15.36-8.9-20.47-.82-36.94-20.64-69.19-50.08-87.37.21-1.37.31-2.77.31-4.19,0-15.46-12.54-28-28-28-2.43,0-4.79.31-7.04.89-5.13-5.79-12.61-9.44-20.96-9.44-8.9,0-16.83,4.16-21.96,10.64-8.49-8.4-20.16-13.58-33.04-13.58-10.28,0-19.79,3.31-27.52,8.91-5.11-5.48-12.39-8.91-20.48-8.91-12.55,0-23.18,8.26-26.73,19.64-6.65-3.6-14.26-5.64-22.35-5.64-17.18,0-32.2,9.22-40.4,22.98-2.65-1.67-5.77-2.65-9.13-2.65-2.07,0-4.05.39-5.89,1.06-2.46-3.59-6.6-5.96-11.28-5.96-4.26,0-8.06,1.94-10.56,5-.6-.06-1.21-.1-1.83-.1-9.49,0-17.17,7.69-17.17,17.17s7.69,17.17,17.17,17.17c2.56,0,4.98-.58,7.16-1.59-1.96,3.77-3.09,8.03-3.15,12.56-10.39,8.62-17.01,21.63-17.01,36.18,0,12.43,4.83,23.72,12.71,32.12-2.39,5.63-3.71,11.82-3.71,18.33,0,24.06,18.09,43.89,41.41,46.66,18.53,16.15,42.75,25.94,69.26,25.94h.98c3.47,1.54,7.31,2.4,11.35,2.4s7.88-.86,11.35-2.4h8.96c9.01,8.41,21.1,13.56,34.4,13.56s25.39-5.15,34.4-13.56h23.41c16.45,0,32.01-3.77,45.89-10.48,3.3.73,6.72,1.13,10.24,1.13,25.96,0,47-21.04,47-47,0-2.77-.25-5.48-.71-8.11,7.2-5.07,11.9-13.43,11.9-22.9Z"/>
  <g>
    <path class="cls-1" d="M478.23,319.85c23.19.54,41.56,19.77,41.02,42.97-.54,23.19-19.77,41.55-42.96,41.02l-49.72-1.15c-23.19-.54-41.55-19.77-41.02-42.96.54-23.19,19.77-41.56,42.96-41.02,0,0,49.72,1.15,49.72,1.15Z"/>
    <circle class="cls-5" cx="458.17" cy="350.88" r="6.49"/>
    <path class="cls-8" d="M445.9,296.55c-5.53-.13-10.58,2-14.28,5.53-4.94-6.99-13.01-11.63-22.22-11.84-15.46-.36-28.28,11.89-28.64,27.34,0,.15,0,.31,0,.46-22.95,2.63-41.03,21.85-41.58,45.59-.6,25.95,19.95,47.47,45.9,48.08,3.94.09,7.78-.31,11.47-1.14,3.06,6.82,9.81,11.65,17.78,11.84,11.05.26,20.21-8.5,20.47-19.54.15-6.36-2.7-12.09-7.25-15.86,3.41-6.32,5.43-13.52,5.61-21.19.22-9.41-2.36-18.23-6.95-25.69,2.73-2.18,5.05-4.86,6.81-7.91,3.3,2.62,7.43,4.24,11.96,4.35,11.05.26,20.21-8.5,20.47-19.54.26-11.05-8.5-20.22-19.55-20.47Z"/>
    <path class="cls-1" d="M409.08,354.18l3.87,20.09c.96,4.99-2.31,9.82-7.3,10.78-4.99.96-9.82-2.31-10.78-7.3-.25-1.32-.2-2.67.09-3.9l4.8-19.89c.62-2.56,3.2-4.14,5.76-3.52,1.87.45,3.22,1.96,3.57,3.74Z"/>
  </g>
</svg>