<?xml version="1.0" encoding="UTF-8"?>
<svg id="Layer_1" data-name="Layer 1" xmlns="http://www.w3.org/2000/svg" viewBox="0 0 566.93 566.93">
  <defs>
    <style>
      .cls-1 {
        fill: #5c6670;
      }

      .cls-2 {
        fill: #d2d8d8;
      }

      .cls-3 {
        fill: #dadbdc;
      }

      .cls-4 {
        fill: #2d3740;
      }

      .cls-5 {
        fill: #333e48;
      }

      .cls-6 {
        fill: #7d868c;
      }

      .cls-7 {
        fill: #aab2b2;
      }

      .cls-8 {
        fill: #eaeaea;
      }
    </style>
  </defs>
  <g>
    <g>
      <rect class="cls-1" x="86.73" y="491.15" width="21.81" height="40.33" transform="translate(457.44 135.13) rotate(54.54)"/>
      <rect class="cls-4" x="66.78" y="521.2" width="21.81" height="8.67" transform="translate(460.64 157.35) rotate(54.54)"/>
    </g>
    <path class="cls-7" d="M142.87,440.49c14.14-10.08,33.78-6.78,43.85,7.37,10.08,14.14,6.78,33.77-7.37,43.85l-30.32,21.6c-14.14,10.08-33.77,6.78-43.85-7.37-10.08-14.14-6.78-33.78,7.36-43.85l30.32-21.6Z"/>
  </g>
  <g>
    <g>
      <rect class="cls-1" x="443.05" y="389.61" width="21.81" height="40.33" transform="translate(80.59 894.13) rotate(-94.45)"/>
      <rect class="cls-4" x="467.47" y="403.55" width="21.81" height="8.67" transform="translate(108.8 916.44) rotate(-94.45)"/>
    </g>
    <path class="cls-7" d="M378.69,447.17c-17.31,1.35-32.44-11.6-33.78-28.91-1.35-17.31,11.6-32.44,28.91-33.78l37.12-2.89c17.31-1.35,32.44,11.6,33.78,28.91,1.35,17.31-11.6,32.44-28.91,33.79l-37.12,2.89Z"/>
  </g>
  <g>
    <g>
      <rect class="cls-6" x="49.91" y="455.89" width="21.81" height="40.33" transform="translate(490.71 262.72) rotate(70.89)"/>
      <rect class="cls-5" x="26.76" y="479.75" width="21.81" height="8.67" transform="translate(482.73 289.98) rotate(70.89)"/>
    </g>
    <path class="cls-2" d="M124.16,420.83c16.41-5.69,34.32,3.01,40,19.41s-3,34.32-19.41,40l-35.18,12.19c-16.41,5.69-34.32-3.01-40-19.41-5.69-16.41,3-34.32,19.41-40l35.18-12.19Z"/>
  </g>
  <g>
    <g>
      <rect class="cls-6" x="427.97" y="449.38" width="21.81" height="40.33" transform="translate(-137.09 754.77) rotate(-73.28)"/>
      <rect class="cls-5" x="451.43" y="472.26" width="21.81" height="8.67" transform="translate(-127.13 782.26) rotate(-73.28)"/>
    </g>
    <path class="cls-2" d="M355.18,477.24c-16.63-5-26.06-22.53-21.07-39.16,5-16.63,22.53-26.06,39.16-21.07l35.66,10.71c16.63,5,26.06,22.53,21.07,39.16-5,16.63-22.53,26.06-39.16,21.07l-35.66-10.71Z"/>
  </g>
  <path class="cls-3" d="M408.97,382.29c0-8.08-3.43-15.36-8.9-20.47-.82-36.94-20.64-69.19-50.08-87.37.21-1.37.31-2.77.31-4.19,0-15.46-12.54-28-28-28-2.43,0-4.79.31-7.04.89-5.13-5.79-12.61-9.44-20.96-9.44-8.9,0-16.83,4.16-21.96,10.64-8.49-8.4-20.16-13.58-33.04-13.58-10.28,0-19.79,3.31-27.52,8.91-5.11-5.48-12.39-8.91-20.48-8.91-12.55,0-23.18,8.26-26.73,19.64-6.65-3.6-14.26-5.64-22.35-5.64-17.18,0-32.2,9.22-40.4,22.98-2.65-1.67-5.77-2.65-9.13-2.65-2.07,0-4.05.39-5.89,1.06-2.46-3.59-6.6-5.96-11.28-5.96-4.26,0-8.06,1.94-10.56,5-.6-.06-1.21-.1-1.83-.1-9.49,0-17.17,7.69-17.17,17.17s7.69,17.17,17.17,17.17c2.56,0,4.98-.58,7.16-1.59-1.96,3.77-3.09,8.03-3.15,12.56-10.39,8.62-17.01,21.63-17.01,36.18,0,12.43,4.83,23.72,12.71,32.12-2.39,5.63-3.71,11.82-3.71,18.33,0,24.06,18.09,43.89,41.41,46.66,18.53,16.15,42.75,25.94,69.26,25.94h.98c3.47,1.54,7.31,2.4,11.35,2.4s7.88-.86,11.35-2.4h8.96c9.01,8.41,21.1,13.56,34.4,13.56s25.39-5.15,34.4-13.56h23.41c16.45,0,32.01-3.77,45.89-10.48,3.3.73,6.72,1.13,10.24,1.13,25.96,0,47-21.04,47-47,0-2.77-.25-5.48-.71-8.11,7.2-5.07,11.9-13.43,11.9-22.9Z"/>
  <g>
    <path class="cls-1" d="M418.29,238.74c22.42-5.96,45.42,7.39,51.38,29.81,5.96,22.42-7.39,45.42-29.81,51.38l-48.07,12.77c-22.42,5.96-45.42-7.39-51.38-29.81-5.96-22.42,7.39-45.42,29.81-51.38,0,0,48.07-12.77,48.07-12.77Z"/>
    <circle class="cls-5" cx="407.69" cy="274.13" r="6.49"/>
    <path class="cls-8" d="M380.74,225.39c-5.34,1.42-9.6,4.87-12.17,9.3-6.7-5.33-15.74-7.53-24.64-5.17-14.95,3.97-23.84,19.31-19.87,34.25.04.15.09.29.13.44-21.31,8.93-33.3,32.43-27.2,55.39,6.67,25.09,32.41,40.02,57.49,33.35,3.81-1.01,7.39-2.47,10.69-4.3,4.84,5.7,12.68,8.45,20.38,6.41,10.68-2.84,17.04-13.8,14.2-24.48-1.63-6.15-5.97-10.86-11.39-13.21,1.51-7.02,1.44-14.5-.53-21.91-2.42-9.1-7.35-16.85-13.84-22.73,2.01-2.86,3.49-6.08,4.33-9.5,3.9,1.6,8.32,2,12.7.84,10.68-2.84,17.04-13.8,14.2-24.48-2.84-10.68-13.8-17.04-24.48-14.2Z"/>
    <path class="cls-1" d="M361.47,291.01l9.32,18.21c2.32,4.53.53,10.08-4,12.39-4.53,2.32-10.08.53-12.39-4-.61-1.2-.94-2.51-1-3.77l-.95-20.44c-.12-2.64,1.91-4.87,4.55-4.99,1.93-.09,3.64.98,4.47,2.6Z"/>
  </g>
</svg>